<mxfile host="Electron" modified="2023-11-09T01:03:36.909Z" agent="Mozilla/5.0 (X11; Linux x86_64) AppleWebKit/537.36 (KHTML, like Gecko) draw.io/22.0.2 Chrome/114.0.5735.289 Electron/25.8.4 Safari/537.36" etag="apOI_QeIy-335VKMKITg" version="22.0.2" type="device">
  <diagram name="Sensor Software Block Diagram" id="fo18u6Ch1KVScq3Fo-Wy">
    <mxGraphModel dx="2340" dy="1611" grid="1" gridSize="10" guides="1" tooltips="1" connect="1" arrows="1" fold="1" page="1" pageScale="1" pageWidth="800" pageHeight="350" background="#999999" math="0" shadow="0">
      <root>
        <object label="" description="Block Diagram of Sensor Node Software Stack" rev="1.0" id="0">
          <mxCell />
        </object>
        <object label="Title Block" id="1">
          <mxCell style="locked=1;" parent="0" />
        </object>
        <mxCell id="h7L3MlKvrl_dhOmhB3lf-10" value="Prepared with: draw.io v22.0.0" style="strokeWidth=1;shadow=0;dashed=0;align=center;html=1;shape=mxgraph.mockup.text.textBox;fontColor=#666666;align=left;fontSize=17;spacingLeft=4;spacingTop=-3;whiteSpace=wrap;strokeColor=#333333;mainText=;fillColor=none;fontFamily=Open Sans;movable=1;resizable=1;rotatable=1;deletable=1;editable=1;locked=0;connectable=1;" parent="1" vertex="1">
          <mxGeometry x="220" y="300" width="280" height="30" as="geometry" />
        </mxCell>
        <object label="&lt;div align=&quot;left&quot;&gt;Sheet %pagenumber%/%pagecount%&lt;/div&gt;" placeholders="1" id="h7L3MlKvrl_dhOmhB3lf-12">
          <mxCell style="strokeWidth=1;shadow=0;dashed=0;align=left;html=1;shape=mxgraph.mockup.text.textBox;fontColor=#666666;align=left;fontSize=17;spacingLeft=4;spacingTop=-3;whiteSpace=wrap;strokeColor=#333333;mainText=;fillColor=none;fontFamily=Open Sans;movable=1;resizable=1;rotatable=1;deletable=1;editable=1;locked=0;connectable=1;" parent="1" vertex="1">
            <mxGeometry x="60" y="300" width="160" height="30" as="geometry" />
          </mxCell>
        </object>
        <object label="Date: &lt;font style=&quot;font-size: 17px;&quot;&gt;%date{ddd mmm dd yyyy HH:MM:ss}%&lt;/font&gt;" placeholders="1" id="h7L3MlKvrl_dhOmhB3lf-13">
          <mxCell style="strokeWidth=1;shadow=0;dashed=0;align=center;html=1;shape=mxgraph.mockup.text.textBox;fontColor=#666666;align=left;fontSize=17;spacingLeft=4;spacingTop=-3;whiteSpace=wrap;strokeColor=#333333;mainText=;fillColor=none;fontFamily=Open Sans;movable=1;resizable=1;rotatable=1;deletable=1;editable=1;locked=0;connectable=1;" parent="1" vertex="1">
            <mxGeometry x="500" y="300" width="280" height="30" as="geometry" />
          </mxCell>
        </object>
        <object label="&lt;b&gt;Title: %page%&lt;/b&gt;" placeholders="1" id="h7L3MlKvrl_dhOmhB3lf-14">
          <mxCell style="strokeWidth=1;shadow=0;dashed=0;align=center;html=1;shape=mxgraph.mockup.text.textBox;fontColor=#666666;align=left;fontSize=17;spacingLeft=4;spacingTop=-3;whiteSpace=wrap;strokeColor=#333333;mainText=;fillColor=none;fontFamily=Open Sans;movable=1;resizable=1;rotatable=1;deletable=1;editable=1;locked=0;connectable=1;" parent="1" vertex="1">
            <mxGeometry x="60" y="240" width="720" height="30" as="geometry" />
          </mxCell>
        </object>
        <object label="Filename: %filename%" placeholders="1" id="h7L3MlKvrl_dhOmhB3lf-15">
          <mxCell style="strokeWidth=1;shadow=0;dashed=0;align=center;html=1;shape=mxgraph.mockup.text.textBox;fontColor=#666666;align=left;fontSize=17;spacingLeft=4;spacingTop=-3;whiteSpace=wrap;strokeColor=#333333;mainText=;fillColor=none;fontFamily=Open Sans;movable=1;resizable=1;rotatable=1;deletable=1;editable=1;locked=0;connectable=1;" parent="1" vertex="1">
            <mxGeometry x="60" y="270" width="480" height="30" as="geometry" />
          </mxCell>
        </object>
        <object label="&lt;div align=&quot;left&quot;&gt;%description%&lt;/div&gt;" placeholders="1" id="h7L3MlKvrl_dhOmhB3lf-16">
          <mxCell style="strokeWidth=1;shadow=0;dashed=0;html=1;shape=mxgraph.mockup.text.textBox;fontColor=#666666;align=left;verticalAlign=top;fontSize=12;spacingLeft=4;spacingTop=-3;whiteSpace=wrap;strokeColor=#333333;mainText=;fillColor=none;fontFamily=Open Sans;movable=1;resizable=1;rotatable=1;deletable=1;editable=1;locked=0;connectable=1;" parent="1" vertex="1">
            <mxGeometry x="60" y="200" width="720" height="40" as="geometry" />
          </mxCell>
        </object>
        <object label="&lt;b&gt;Rev: %rev%&lt;br&gt;&lt;/b&gt;" placeholders="1" id="EyKvBmyPNv_MzgSUc5b6-1">
          <mxCell style="strokeWidth=1;shadow=0;dashed=0;align=center;html=1;shape=mxgraph.mockup.text.textBox;fontColor=#666666;align=left;fontSize=17;spacingLeft=4;spacingTop=-3;whiteSpace=wrap;strokeColor=#333333;mainText=;fillColor=none;fontFamily=Open Sans;movable=1;resizable=1;rotatable=1;deletable=1;editable=1;locked=0;connectable=1;" parent="1" vertex="1">
            <mxGeometry x="540" y="270" width="240" height="30" as="geometry" />
          </mxCell>
        </object>
        <object label="Drawing Frame" id="2jkEU8j2_UPUL1MGRyPS-1">
          <mxCell style="locked=1;" parent="0" />
        </object>
        <mxCell id="2jkEU8j2_UPUL1MGRyPS-2" value="" style="rounded=0;whiteSpace=wrap;html=1;fillColor=none;strokeWidth=3;movable=1;resizable=1;rotatable=1;deletable=1;editable=1;locked=0;connectable=1;" parent="2jkEU8j2_UPUL1MGRyPS-1" vertex="1">
          <mxGeometry x="-320" y="-370" width="1100" height="700" as="geometry" />
        </mxCell>
        <object label="Document" id="NbdiYjX3MhI7OpqD2NvG-1">
          <mxCell parent="0" />
        </object>
        <mxCell id="Sss9bJefdTC3gDfBGX2G-4" value="Shared Services" style="swimlane;whiteSpace=wrap;html=1;fontFamily=Open Sans;fillColor=#f5f5f5;fontColor=#333333;strokeColor=#666666;" parent="NbdiYjX3MhI7OpqD2NvG-1" vertex="1">
          <mxGeometry x="610" y="-340" width="140" height="510" as="geometry">
            <mxRectangle x="300" y="-210" width="140" height="30" as="alternateBounds" />
          </mxGeometry>
        </mxCell>
        <mxCell id="Sss9bJefdTC3gDfBGX2G-6" value="Project Configuration" style="rounded=1;whiteSpace=wrap;html=1;fontFamily=Open Sans;fillColor=#f5f5f5;fontColor=#333333;strokeColor=#666666;" parent="Sss9bJefdTC3gDfBGX2G-4" vertex="1">
          <mxGeometry x="10" y="100" width="120" height="60" as="geometry" />
        </mxCell>
        <mxCell id="Sss9bJefdTC3gDfBGX2G-7" value="C++ stdlib" style="rounded=1;whiteSpace=wrap;html=1;fontFamily=Open Sans;fillColor=#f5f5f5;fontColor=#333333;strokeColor=#666666;" parent="Sss9bJefdTC3gDfBGX2G-4" vertex="1">
          <mxGeometry x="10" y="360" width="120" height="60" as="geometry" />
        </mxCell>
        <mxCell id="Sss9bJefdTC3gDfBGX2G-5" value="SDK" style="swimlane;horizontal=0;whiteSpace=wrap;html=1;fontFamily=Open Sans;fillColor=#f5f5f5;strokeColor=#666666;fontColor=#333333;" parent="NbdiYjX3MhI7OpqD2NvG-1" vertex="1">
          <mxGeometry x="-290" y="-70" width="890" height="240" as="geometry">
            <mxRectangle x="-260" width="40" height="140" as="alternateBounds" />
          </mxGeometry>
        </mxCell>
        <mxCell id="Sss9bJefdTC3gDfBGX2G-9" value="ESP SDK" style="swimlane;horizontal=0;whiteSpace=wrap;html=1;fontFamily=Open Sans;fillColor=#f5f5f5;strokeColor=#666666;fontColor=#333333;" parent="Sss9bJefdTC3gDfBGX2G-5" vertex="1">
          <mxGeometry x="330" y="10" width="550" height="220" as="geometry">
            <mxRectangle x="60" y="-60" width="40" height="140" as="alternateBounds" />
          </mxGeometry>
        </mxCell>
        <mxCell id="Sss9bJefdTC3gDfBGX2G-15" value="ResetInfo" style="rounded=1;whiteSpace=wrap;html=1;fontFamily=Open Sans;fillColor=#fff2cc;strokeColor=#d6b656;" parent="Sss9bJefdTC3gDfBGX2G-9" vertex="1">
          <mxGeometry x="30" y="10" width="120" height="60" as="geometry" />
        </mxCell>
        <mxCell id="Sss9bJefdTC3gDfBGX2G-16" value="rtcUserMemory" style="rounded=1;whiteSpace=wrap;html=1;fontFamily=Open Sans;fillColor=#fff2cc;strokeColor=#d6b656;" parent="Sss9bJefdTC3gDfBGX2G-9" vertex="1">
          <mxGeometry x="160" y="10" width="120" height="60" as="geometry" />
        </mxCell>
        <mxCell id="Sss9bJefdTC3gDfBGX2G-17" value="Deep Sleep" style="rounded=1;whiteSpace=wrap;html=1;fontFamily=Open Sans;fillColor=#fff2cc;strokeColor=#d6b656;" parent="Sss9bJefdTC3gDfBGX2G-9" vertex="1">
          <mxGeometry x="30" y="80" width="120" height="60" as="geometry" />
        </mxCell>
        <mxCell id="Sss9bJefdTC3gDfBGX2G-18" value="ADC_VCC" style="rounded=1;whiteSpace=wrap;html=1;fontFamily=Open Sans;fillColor=#ffe6cc;strokeColor=#d79b00;" parent="Sss9bJefdTC3gDfBGX2G-9" vertex="1">
          <mxGeometry x="30" y="150" width="120" height="60" as="geometry" />
        </mxCell>
        <mxCell id="Sss9bJefdTC3gDfBGX2G-19" value="SPIFFS" style="rounded=1;whiteSpace=wrap;html=1;fontFamily=Open Sans;fillColor=#FFFFCC;strokeColor=#36393d;" parent="Sss9bJefdTC3gDfBGX2G-9" vertex="1">
          <mxGeometry x="160" y="150" width="120" height="60" as="geometry" />
        </mxCell>
        <mxCell id="Sss9bJefdTC3gDfBGX2G-20" value="Updater" style="rounded=1;whiteSpace=wrap;html=1;fontFamily=Open Sans;fillColor=#d5e8d4;strokeColor=#82b366;" parent="Sss9bJefdTC3gDfBGX2G-9" vertex="1">
          <mxGeometry x="290" y="10" width="120" height="60" as="geometry" />
        </mxCell>
        <mxCell id="Sss9bJefdTC3gDfBGX2G-21" value="MD5Builder" style="rounded=1;whiteSpace=wrap;html=1;fontFamily=Open Sans;fillColor=#d5e8d4;strokeColor=#82b366;" parent="Sss9bJefdTC3gDfBGX2G-9" vertex="1">
          <mxGeometry x="290" y="80" width="120" height="60" as="geometry" />
        </mxCell>
        <mxCell id="Sss9bJefdTC3gDfBGX2G-22" value="WiFiStation" style="rounded=1;whiteSpace=wrap;html=1;fontFamily=Open Sans;fillColor=#e1d5e7;strokeColor=#9673a6;" parent="Sss9bJefdTC3gDfBGX2G-9" vertex="1">
          <mxGeometry x="290" y="150" width="120" height="60" as="geometry" />
        </mxCell>
        <mxCell id="Sss9bJefdTC3gDfBGX2G-23" value="WiFiSoftAP" style="rounded=1;whiteSpace=wrap;html=1;fontFamily=Open Sans;fillColor=#dae8fc;strokeColor=#6c8ebf;" parent="Sss9bJefdTC3gDfBGX2G-9" vertex="1">
          <mxGeometry x="420" y="80" width="120" height="60" as="geometry" />
        </mxCell>
        <mxCell id="Sss9bJefdTC3gDfBGX2G-24" value="Waveform" style="rounded=1;whiteSpace=wrap;html=1;fontFamily=Open Sans;fillColor=#dae8fc;strokeColor=#6c8ebf;" parent="Sss9bJefdTC3gDfBGX2G-9" vertex="1">
          <mxGeometry x="420" y="10" width="120" height="60" as="geometry" />
        </mxCell>
        <mxCell id="Sss9bJefdTC3gDfBGX2G-25" value="ChipId" style="rounded=1;whiteSpace=wrap;html=1;fontFamily=Open Sans;fillColor=#fff2cc;strokeColor=#d6b656;" parent="Sss9bJefdTC3gDfBGX2G-9" vertex="1">
          <mxGeometry x="160" y="80" width="120" height="60" as="geometry" />
        </mxCell>
        <mxCell id="Sss9bJefdTC3gDfBGX2G-26" value="lwip" style="rounded=1;whiteSpace=wrap;html=1;fontFamily=Open Sans;fillColor=#e1d5e7;strokeColor=#9673a6;" parent="Sss9bJefdTC3gDfBGX2G-9" vertex="1">
          <mxGeometry x="420" y="150" width="120" height="60" as="geometry" />
        </mxCell>
        <mxCell id="Sss9bJefdTC3gDfBGX2G-8" value="Arduino" style="swimlane;horizontal=0;whiteSpace=wrap;html=1;fillStyle=auto;fontFamily=Open Sans;fillColor=#f5f5f5;strokeColor=#666666;fontColor=#333333;" parent="Sss9bJefdTC3gDfBGX2G-5" vertex="1">
          <mxGeometry x="30" y="10" width="290" height="220" as="geometry">
            <mxRectangle x="60" y="-60" width="40" height="140" as="alternateBounds" />
          </mxGeometry>
        </mxCell>
        <mxCell id="Sss9bJefdTC3gDfBGX2G-10" value="Serial" style="rounded=1;whiteSpace=wrap;html=1;fontFamily=Open Sans;fillColor=#f5f5f5;fontColor=#333333;strokeColor=#666666;" parent="Sss9bJefdTC3gDfBGX2G-8" vertex="1">
          <mxGeometry x="30" y="10" width="120" height="60" as="geometry" />
        </mxCell>
        <mxCell id="Sss9bJefdTC3gDfBGX2G-11" value="Wiring" style="rounded=1;whiteSpace=wrap;html=1;fontFamily=Open Sans;fillColor=#ffe6cc;strokeColor=#d79b00;" parent="Sss9bJefdTC3gDfBGX2G-8" vertex="1">
          <mxGeometry x="160" y="10" width="120" height="60" as="geometry" />
        </mxCell>
        <mxCell id="Sss9bJefdTC3gDfBGX2G-12" value="TwoWire" style="rounded=1;whiteSpace=wrap;html=1;fontFamily=Open Sans;fillColor=#ffe6cc;strokeColor=#d79b00;" parent="Sss9bJefdTC3gDfBGX2G-8" vertex="1">
          <mxGeometry x="30" y="80" width="120" height="60" as="geometry" />
        </mxCell>
        <mxCell id="Sss9bJefdTC3gDfBGX2G-13" value="WiFi" style="rounded=1;whiteSpace=wrap;html=1;fontFamily=Open Sans;fillColor=#e1d5e7;strokeColor=#9673a6;" parent="Sss9bJefdTC3gDfBGX2G-8" vertex="1">
          <mxGeometry x="30" y="150" width="120" height="60" as="geometry" />
        </mxCell>
        <mxCell id="Sss9bJefdTC3gDfBGX2G-14" value="WiFiClient" style="rounded=1;whiteSpace=wrap;html=1;fontFamily=Open Sans;fillColor=#e1d5e7;strokeColor=#9673a6;" parent="Sss9bJefdTC3gDfBGX2G-8" vertex="1">
          <mxGeometry x="160" y="150" width="120" height="60" as="geometry" />
        </mxCell>
        <mxCell id="lVKpyNV5w2mlOseutN5l-1" value="Drivers" style="swimlane;horizontal=0;whiteSpace=wrap;html=1;fontFamily=Open Sans;fillColor=#f5f5f5;fontColor=#333333;strokeColor=#666666;" parent="NbdiYjX3MhI7OpqD2NvG-1" vertex="1">
          <mxGeometry x="-290" y="-160" width="890" height="80" as="geometry" />
        </mxCell>
        <mxCell id="lVKpyNV5w2mlOseutN5l-2" value="Pulse2" style="rounded=1;whiteSpace=wrap;html=1;fontFamily=Open Sans;fillColor=#ffe6cc;strokeColor=#d79b00;" parent="lVKpyNV5w2mlOseutN5l-1" vertex="1">
          <mxGeometry x="50" y="10" width="120" height="60" as="geometry" />
        </mxCell>
        <mxCell id="lVKpyNV5w2mlOseutN5l-3" value="&amp;nbsp;EPD_1in9" style="rounded=1;whiteSpace=wrap;html=1;fontFamily=Open Sans;fillColor=#bac8d3;strokeColor=#23445d;" parent="lVKpyNV5w2mlOseutN5l-1" vertex="1">
          <mxGeometry x="750" y="10" width="120" height="60" as="geometry" />
        </mxCell>
        <mxCell id="lVKpyNV5w2mlOseutN5l-6" value="HP303B" style="rounded=1;whiteSpace=wrap;html=1;fontFamily=Open Sans;fillColor=#ffe6cc;strokeColor=#d79b00;" parent="lVKpyNV5w2mlOseutN5l-1" vertex="1">
          <mxGeometry x="330" y="10" width="120" height="60" as="geometry" />
        </mxCell>
        <mxCell id="lVKpyNV5w2mlOseutN5l-5" value="Persistent Storage" style="rounded=1;whiteSpace=wrap;html=1;fontFamily=Open Sans;fillColor=#FFFFCC;strokeColor=#36393d;" parent="lVKpyNV5w2mlOseutN5l-1" vertex="1">
          <mxGeometry x="610" y="10" width="120" height="60" as="geometry" />
        </mxCell>
        <mxCell id="lVKpyNV5w2mlOseutN5l-4" value="RTC Mem" style="rounded=1;whiteSpace=wrap;html=1;fontFamily=Open Sans;fillColor=#fff2cc;strokeColor=#d6b656;" parent="lVKpyNV5w2mlOseutN5l-1" vertex="1">
          <mxGeometry x="470" y="10" width="120" height="60" as="geometry" />
        </mxCell>
        <mxCell id="lVKpyNV5w2mlOseutN5l-7" value="SHT30" style="rounded=1;whiteSpace=wrap;html=1;fontFamily=Open Sans;fillColor=#ffe6cc;strokeColor=#d79b00;" parent="lVKpyNV5w2mlOseutN5l-1" vertex="1">
          <mxGeometry x="190" y="10" width="120" height="60" as="geometry" />
        </mxCell>
        <mxCell id="lVKpyNV5w2mlOseutN5l-8" value="Middleware" style="swimlane;horizontal=0;whiteSpace=wrap;html=1;fontFamily=Open Sans;fillColor=#f5f5f5;fontColor=#333333;strokeColor=#666666;" parent="NbdiYjX3MhI7OpqD2NvG-1" vertex="1">
          <mxGeometry x="-290" y="-250" width="890" height="80" as="geometry" />
        </mxCell>
        <mxCell id="lVKpyNV5w2mlOseutN5l-9" value="WiFiManager" style="rounded=1;whiteSpace=wrap;html=1;fontFamily=Open Sans;fillColor=#dae8fc;strokeColor=#6c8ebf;" parent="lVKpyNV5w2mlOseutN5l-8" vertex="1">
          <mxGeometry x="630" y="10" width="120" height="60" as="geometry" />
        </mxCell>
        <mxCell id="lVKpyNV5w2mlOseutN5l-10" value="UpdateParser" style="rounded=1;whiteSpace=wrap;html=1;fontFamily=Open Sans;fillColor=#d5e8d4;strokeColor=#82b366;" parent="lVKpyNV5w2mlOseutN5l-8" vertex="1">
          <mxGeometry x="390" y="10" width="120" height="60" as="geometry" />
        </mxCell>
        <mxCell id="lVKpyNV5w2mlOseutN5l-11" value="Sensors" style="rounded=1;whiteSpace=wrap;html=1;fontFamily=Open Sans;fillColor=#ffe6cc;strokeColor=#d79b00;" parent="lVKpyNV5w2mlOseutN5l-8" vertex="1">
          <mxGeometry x="150" y="10" width="120" height="60" as="geometry" />
        </mxCell>
        <mxCell id="lVKpyNV5w2mlOseutN5l-12" value="Application" style="swimlane;horizontal=0;whiteSpace=wrap;html=1;fontFamily=Open Sans;fillColor=#f5f5f5;fontColor=#333333;strokeColor=#666666;" parent="NbdiYjX3MhI7OpqD2NvG-1" vertex="1">
          <mxGeometry x="-290" y="-340" width="890" height="80" as="geometry">
            <mxRectangle x="-290" y="-340" width="40" height="100" as="alternateBounds" />
          </mxGeometry>
        </mxCell>
        <mxCell id="lVKpyNV5w2mlOseutN5l-13" value="Main" style="rounded=1;whiteSpace=wrap;html=1;fontFamily=Open Sans;fillColor=#fff2cc;strokeColor=#d6b656;" parent="lVKpyNV5w2mlOseutN5l-12" vertex="1">
          <mxGeometry x="270" y="10" width="120" height="60" as="geometry" />
        </mxCell>
        <mxCell id="lVKpyNV5w2mlOseutN5l-14" value="Connection Manager" style="rounded=1;whiteSpace=wrap;html=1;fontFamily=Open Sans;fillColor=#e1d5e7;strokeColor=#9673a6;" parent="lVKpyNV5w2mlOseutN5l-12" vertex="1">
          <mxGeometry x="510" y="10" width="120" height="60" as="geometry" />
        </mxCell>
      </root>
    </mxGraphModel>
  </diagram>
</mxfile>
